<svg xmlns="http://www.w3.org/2000/svg" viewBox="0 0 436 213.92"><title>stenoboard</title><path d="M162,163a21.46,21.46,0,0,1-19-11.19V105h38v46.81A21.46,21.46,0,0,1,162,163Z" transform="translate(-10 -14.17)" style="fill:#fff"/><path d="M180,106V151.6a20.74,20.74,0,0,1-36,0V106h36m2-2H142v48a22.71,22.71,0,0,0,40,0V104h0Z" transform="translate(-10 -14.17)" style="fill:#231f20"/><rect x="133" y="26.92" width="38" height="58" style="fill:#fff"/><path d="M180,42.09v56H144v-56h36m2-2H142v60h40v-60h0Z" transform="translate(-10 -14.17)" style="fill:#231f20"/><path d="M118,163a21.46,21.46,0,0,1-19-11.19V105h38v46.81A21.46,21.46,0,0,1,118,163Z" transform="translate(-10 -14.17)" style="fill:#fff"/><path d="M136,106V151.6a20.74,20.74,0,0,1-36,0V106h36m2-2H98v48a22.71,22.71,0,0,0,40,0V104h0Z" transform="translate(-10 -14.17)" style="fill:#231f20"/><rect x="89" y="26.92" width="38" height="58" style="fill:#fff"/><path d="M136,42.09v56H100v-56h36m2-2H98v60h40v-60h0Z" transform="translate(-10 -14.17)" style="fill:#231f20"/><path d="M74,163a21.46,21.46,0,0,1-19-11.19V105H93v46.81A21.46,21.46,0,0,1,74,163Z" transform="translate(-10 -14.17)" style="fill:#fff"/><path d="M92,106V151.6a20.74,20.74,0,0,1-36,0V106H92m2-2H54v48a22.71,22.71,0,0,0,40,0V104h0Z" transform="translate(-10 -14.17)" style="fill:#231f20"/><rect x="45" y="26.92" width="38" height="58" style="fill:#fff"/><path d="M92,42.09v56H56v-56H92m2-2H54v60H94v-60h0Z" transform="translate(-10 -14.17)" style="fill:#231f20"/><path d="M30,163a21.75,21.75,0,0,1-19-11.2V41.09H49V151.86A21.46,21.46,0,0,1,30,163Z" transform="translate(-10 -14.17)" style="fill:#fff"/><path d="M48,42.09V151.6a20.73,20.73,0,0,1-36,0V42.09H48m2-2H10v112a22.71,22.71,0,0,0,40,0v-112h0Z" transform="translate(-10 -14.17)" style="fill:#231f20"/><path d="M206,163a21.46,21.46,0,0,1-19-11.19V41.09h38V151.86A21.46,21.46,0,0,1,206,163Z" transform="translate(-10 -14.17)" style="fill:#fff"/><path d="M224,42.09V151.6a20.73,20.73,0,0,1-36,0V42.09h36m2-2H186v112a22.71,22.71,0,0,0,40,0v-112h0Z" transform="translate(-10 -14.17)" style="fill:#231f20"/><path d="M426,163a21.46,21.46,0,0,1-19-11.19V105h38v46.81A21.46,21.46,0,0,1,426,163Z" transform="translate(-10 -14.17)" style="fill:#fff"/><path d="M444,106v45.56a20.74,20.74,0,0,1-36,0V106h36m2-2H406v48a22.71,22.71,0,0,0,40,0V104h0Z" transform="translate(-10 -14.17)" style="fill:#231f20"/><rect x="397" y="26.88" width="38" height="58" style="fill:#fff"/><path d="M444,42V98H408V42h36m2-2H406v60h40V40h0Z" transform="translate(-10 -14.17)" style="fill:#231f20"/><path d="M382,163a21.46,21.46,0,0,1-19-11.19V105h38v46.81A21.46,21.46,0,0,1,382,163Z" transform="translate(-10 -14.17)" style="fill:#fff"/><path d="M400,106v45.56a20.74,20.74,0,0,1-36,0V106h36m2-2H362v48a22.71,22.71,0,0,0,40,0V104h0Z" transform="translate(-10 -14.17)" style="fill:#231f20"/><rect x="353" y="26.88" width="38" height="58" style="fill:#fff"/><path d="M400,42V98H364V42h36m2-2H362v60h40V40h0Z" transform="translate(-10 -14.17)" style="fill:#231f20"/><path d="M338,163a21.46,21.46,0,0,1-19-11.19V105h38v46.81A21.46,21.46,0,0,1,338,163Z" transform="translate(-10 -14.17)" style="fill:#fff"/><path d="M356,106v45.56a20.74,20.74,0,0,1-36,0V106h36m2-2H318v48a22.71,22.71,0,0,0,40,0V104h0Z" transform="translate(-10 -14.17)" style="fill:#231f20"/><rect x="309" y="26.88" width="38" height="58" style="fill:#fff"/><path d="M356,42V98H320V42h36m2-2H318v60h40V40h0Z" transform="translate(-10 -14.17)" style="fill:#231f20"/><path d="M294,163a21.46,21.46,0,0,1-19-11.19V105h38v46.81A21.46,21.46,0,0,1,294,163Z" transform="translate(-10 -14.17)" style="fill:#fff"/><path d="M312,106v45.56a20.74,20.74,0,0,1-36,0V106h36m2-2H274v48a22.71,22.71,0,0,0,40,0V104h0Z" transform="translate(-10 -14.17)" style="fill:#231f20"/><rect x="265" y="26.88" width="38" height="58" style="fill:#fff"/><path d="M312,42V98H276V42h36m2-2H274v60h40V40h0Z" transform="translate(-10 -14.17)" style="fill:#231f20"/><path d="M250,163a21.46,21.46,0,0,1-19-11.19V105h38v46.81A21.46,21.46,0,0,1,250,163Z" transform="translate(-10 -14.17)" style="fill:#fff"/><path d="M268,106v45.56a20.74,20.74,0,0,1-36,0V106h36m2-2H230v48a22.71,22.71,0,0,0,40,0V104h0Z" transform="translate(-10 -14.17)" style="fill:#231f20"/><rect x="221" y="26.88" width="38" height="58" style="fill:#fff"/><path d="M268,42V98H232V42h36m2-2H230v60h40V40h0Z" transform="translate(-10 -14.17)" style="fill:#231f20"/><path d="M284.23,227a21.46,21.46,0,0,1-19-11.19V169h38v46.81A21.46,21.46,0,0,1,284.23,227Z" transform="translate(-10 -14.17)" style="fill:#fff"/><path d="M302.23,170v45.56a20.74,20.74,0,0,1-36,0V170h36m2-2h-40v48a22.71,22.71,0,0,0,40,0V168h0Z" transform="translate(-10 -14.17)" style="fill:#231f20"/><path d="M240.23,227a21.46,21.46,0,0,1-19-11.19V169h38v46.81A21.46,21.46,0,0,1,240.23,227Z" transform="translate(-10 -14.17)" style="fill:#fff"/><path d="M258.23,170v45.56a20.74,20.74,0,0,1-36,0V170h36m2-2h-40v48a22.71,22.71,0,0,0,40,0V168h0Z" transform="translate(-10 -14.17)" style="fill:#231f20"/><path d="M171.26,227.09a21.46,21.46,0,0,1-19-11.19V169.1h38V215.9A21.46,21.46,0,0,1,171.26,227.09Z" transform="translate(-10 -14.17)" style="fill:#fff"/><path d="M189.26,170.1v45.56a20.74,20.74,0,0,1-36,0V170.1h36m2-2h-40v48a22.71,22.71,0,0,0,40,0v-48h0Z" transform="translate(-10 -14.17)" style="fill:#231f20"/><path d="M127.26,227.09a21.46,21.46,0,0,1-19-11.19V169.1h38V215.9A21.46,21.46,0,0,1,127.26,227.09Z" transform="translate(-10 -14.17)" style="fill:#fff"/><path d="M145.26,170.1v45.56a20.74,20.74,0,0,1-36,0V170.1h36m2-2h-40v48a22.71,22.71,0,0,0,40,0v-48h0Z" transform="translate(-10 -14.17)" style="fill:#231f20"/><rect x="1" y="1" width="434" height="19.92" style="fill:#fff"/><path d="M444,16.17V34.09H12V16.17H444m2-2H10V36.09H446V14.17h0Z" transform="translate(-10 -14.17)" style="fill:#231f20"/></svg>